<?xml version="1.0" encoding="UTF-8"?>
<svg id="_Слой_1" data-name="Слой 1" xmlns="http://www.w3.org/2000/svg" viewBox="0 0 2120 1220">
  <defs>
    <style>
      .cls-1, .cls-2, .cls-3, .cls-4 {
        fill: #343a40;
      }

      .cls-5 {
        letter-spacing: 0em;
      }

      .cls-6 {
        letter-spacing: -.02em;
      }

      .cls-7 {
        stroke: #343a40;
        stroke-linecap: round;
      }

      .cls-7, .cls-8 {
        fill: none;
        stroke-miterlimit: 10;
        stroke-width: 2.5px;
      }

      .cls-9, .cls-10 {
        fill: #fff;
      }

      .cls-11 {
        letter-spacing: -.05em;
      }

      .cls-10, .cls-2, .cls-3, .cls-4 {
        font-family: Inter-Regular, Inter;
        font-variation-settings: 'opsz' 14, 'wght' 400;
      }

      .cls-10, .cls-3 {
        font-size: 23.9px;
      }

      .cls-12 {
        letter-spacing: -.07em;
      }

      .cls-13 {
        letter-spacing: 0em;
      }

      .cls-8 {
        stroke: #000;
      }

      .cls-14 {
        letter-spacing: .01em;
      }

      .cls-15 {
        letter-spacing: -.02em;
      }

      .cls-16 {
        letter-spacing: -.02em;
      }

      .cls-17 {
        letter-spacing: -.07em;
      }

      .cls-18 {
        fill: #576dd9;
      }

      .cls-18, .cls-19, .cls-20, .cls-21 {
        opacity: .3;
      }

      .cls-19 {
        fill: #009980;
      }

      .cls-2 {
        font-size: 48px;
      }

      .cls-22 {
        letter-spacing: 0em;
      }

      .cls-23 {
        letter-spacing: 0em;
      }

      .cls-20 {
        fill: #f66;
      }

      .cls-24 {
        letter-spacing: 0em;
      }

      .cls-25 {
        letter-spacing: -.03em;
      }

      .cls-21 {
        fill: #999;
      }

      .cls-26 {
        letter-spacing: 0em;
      }

      .cls-4 {
        font-size: 36px;
      }

      .cls-27 {
        letter-spacing: -.01em;
      }

      .cls-28 {
        fill: #2ea8e5;
        opacity: .3;
      }

      .cls-29 {
        letter-spacing: -.03em;
      }

      .cls-30 {
        letter-spacing: .02em;
      }
    </style>
  </defs>
  <path class="cls-9" d="M1360,1220c-37.19,0-71.99-19.01-92.2-50H110c-60.65,0-110-49.35-110-110V110C0,49.35,49.35,0,110,0h1450C1620.65,0,1670,49.35,1670,110v640h37.51c-4.94-12.68-7.51-26.26-7.51-40V110C1700,49.35,1749.35,0,1810,0h200C2070.65,0,2120,49.35,2120,110v600c0,27.94-10.65,54.73-29.54,75,18.89,20.27,29.54,47.06,29.54,75v250c0,60.65-49.35,110-110,110h-650Z"/>
  <rect class="cls-21" x="260" y="-240" width="1150" height="1650" rx="100" ry="100" transform="translate(1420 -250) rotate(90)"/>
  <rect class="cls-9" x="60" y="110" width="1200" height="1000" rx="50" ry="50"/>
  <rect class="cls-19" x="840" y="450" width="220" height="560" rx="20" ry="20" transform="translate(1680 -220) rotate(90)"/>
  <rect class="cls-21" x="1510" y="210" width="800" height="400" rx="100" ry="100" transform="translate(2320 -1500) rotate(90)"/>
  <rect class="cls-21" x="1260" y="760" width="850" height="450" rx="100" ry="100"/>
  <text class="cls-2" transform="translate(110.12 184.37)"><tspan class="cls-14" x="0" y="0">I</tspan><tspan class="cls-13" x="13.59" y="0">t</tspan><tspan x="28.83" y="0">em 1</tspan></text>
  <text class="cls-2" transform="translate(110.12 81.8)"><tspan x="0" y="0">Collection 1</tspan></text>
  <text class="cls-2" transform="translate(1775.49 81.8)"><tspan x="0" y="0">Collection 2</tspan></text>
  <text class="cls-2" transform="translate(1775.49 1184.17)"><tspan x="0" y="0">Collection 3</tspan></text>
  <rect class="cls-20" x="755" y="125" width="390" height="560" rx="20" ry="20" transform="translate(1355 -545) rotate(90)"/>
  <rect class="cls-28" x="840" y="690" width="220" height="560" rx="20" ry="20" transform="translate(1920 20) rotate(90)"/>
  <rect class="cls-18" x="-65" y="365" width="870" height="560" rx="20" ry="20" transform="translate(1015 275) rotate(90)"/>
  <g>
    <g>
      <rect class="cls-9" x="1310" y="110" width="300" height="300" rx="50" ry="50"/>
      <path class="cls-18" d="M1455,380h-95c-11.05,0-20-8.95-20-20v-130c0-11.05,8.95-20,20-20h95v170Z"/>
      <path class="cls-20" d="M1465,210h95c11.04,0,20,8.96,20,20v31.67h-115v-51.67h0Z"/>
      <path class="cls-28" d="M1465,328.33h115v31.67c0,11.04-8.96,20-20,20h-95v-51.67h0Z"/>
      <rect class="cls-19" x="1465" y="271.67" width="115" height="46.67"/>
    </g>
    <text class="cls-2" transform="translate(1358.38 184.37)"><tspan class="cls-14" x="0" y="0">I</tspan><tspan class="cls-13" x="13.59" y="0">t</tspan><tspan x="28.83" y="0">em 2</tspan></text>
  </g>
  <g>
    <g>
      <rect class="cls-9" x="1310" y="460" width="300" height="300" rx="50" ry="50"/>
      <path class="cls-18" d="M1455,730h-95c-11.05,0-20-8.95-20-20v-130c0-11.05,8.95-20,20-20h95v170Z"/>
      <path class="cls-20" d="M1465,560h95c11.04,0,20,8.96,20,20v31.67h-115v-51.67h0Z"/>
      <path class="cls-28" d="M1465,678.33h115v31.67c0,11.04-8.96,20-20,20h-95v-51.67h0Z"/>
      <rect class="cls-19" x="1465" y="621.67" width="115" height="46.67"/>
    </g>
    <text class="cls-2" transform="translate(1358.38 534.37)"><tspan class="cls-14" x="0" y="0">I</tspan><tspan class="cls-13" x="13.59" y="0">t</tspan><tspan x="28.83" y="0">em 3</tspan></text>
  </g>
  <g>
    <g>
      <rect class="cls-9" x="1310" y="810" width="300" height="300" rx="50" ry="50"/>
      <path class="cls-18" d="M1455,1080h-95c-11.05,0-20-8.95-20-20v-130c0-11.05,8.95-20,20-20h95v170Z"/>
      <path class="cls-20" d="M1465,910h95c11.04,0,20,8.96,20,20v31.67h-115v-51.67h0Z"/>
      <path class="cls-28" d="M1465,1028.33h115v31.67c0,11.04-8.96,20-20,20h-95v-51.67h0Z"/>
      <rect class="cls-19" x="1465" y="971.67" width="115" height="46.67"/>
    </g>
    <text class="cls-2" transform="translate(1358.38 884.37)"><tspan class="cls-14" x="0" y="0">I</tspan><tspan class="cls-13" x="13.59" y="0">t</tspan><tspan x="28.83" y="0">em 4</tspan></text>
  </g>
  <g>
    <g>
      <rect class="cls-9" x="1760" y="110" width="300" height="300" rx="50" ry="50"/>
      <path class="cls-18" d="M1905,380h-95c-11.05,0-20-8.95-20-20v-130c0-11.05,8.95-20,20-20h95v170Z"/>
      <path class="cls-20" d="M1915,210h95c11.04,0,20,8.96,20,20v31.67h-115v-51.67h0Z"/>
      <path class="cls-28" d="M1915,328.33h115v31.67c0,11.04-8.96,20-20,20h-95v-51.67h0Z"/>
      <rect class="cls-19" x="1915" y="271.67" width="115" height="46.67"/>
    </g>
    <text class="cls-2" transform="translate(1808.38 184.37)"><tspan class="cls-14" x="0" y="0">I</tspan><tspan class="cls-13" x="13.59" y="0">t</tspan><tspan x="28.83" y="0">em 5</tspan></text>
  </g>
  <g>
    <g>
      <rect class="cls-9" x="1760" y="460" width="300" height="300" rx="50" ry="50"/>
      <path class="cls-18" d="M1905,730h-95c-11.05,0-20-8.95-20-20v-130c0-11.05,8.95-20,20-20h95v170Z"/>
      <path class="cls-20" d="M1915,560h95c11.04,0,20,8.96,20,20v31.67h-115v-51.67h0Z"/>
      <path class="cls-28" d="M1915,678.33h115v31.67c0,11.04-8.96,20-20,20h-95v-51.67h0Z"/>
      <rect class="cls-19" x="1915" y="621.67" width="115" height="46.67"/>
    </g>
    <text class="cls-2" transform="translate(1808.38 534.37)"><tspan class="cls-14" x="0" y="0">I</tspan><tspan class="cls-13" x="13.59" y="0">t</tspan><tspan x="28.83" y="0">em 6</tspan></text>
  </g>
  <g>
    <g>
      <rect class="cls-9" x="1760" y="810" width="300" height="300" rx="50" ry="50"/>
      <path class="cls-18" d="M1905,1080h-95c-11.05,0-20-8.95-20-20v-130c0-11.05,8.95-20,20-20h95v170Z"/>
      <path class="cls-20" d="M1915,910h95c11.04,0,20,8.96,20,20v31.67h-115v-51.67h0Z"/>
      <path class="cls-28" d="M1915,1028.33h115v31.67c0,11.04-8.96,20-20,20h-95v-51.67h0Z"/>
      <rect class="cls-19" x="1915" y="971.67" width="115" height="46.67"/>
    </g>
    <text class="cls-2" transform="translate(1808.38 884.37)"><tspan class="cls-14" x="0" y="0">I</tspan><tspan class="cls-13" x="13.59" y="0">t</tspan><tspan x="28.83" y="0">em 7</tspan></text>
  </g>
  <g>
    <rect class="cls-9" x="992.18" y="949.76" width="149.83" height="49" rx="20" ry="20"/>
    <text class="cls-3" transform="translate(1007.37 982.85)"><tspan class="cls-22" x="0" y="0">M</tspan><tspan class="cls-26" x="21.7" y="0">y Libra</tspan><tspan class="cls-30" x="98.2" y="0">r</tspan><tspan x="107.57" y="0">y</tspan></text>
  </g>
  <g>
    <rect class="cls-1" x="992.18" y="1011" width="199.97" height="49" rx="20" ry="20"/>
    <text class="cls-10" transform="translate(1006.04 1043.93)"><tspan x="0" y="0">G</tspan><tspan class="cls-6" x="17.83" y="0">r</tspan><tspan class="cls-26" x="26.43" y="0">oup Libra</tspan><tspan class="cls-5" x="132.59" y="0">r</tspan><tspan class="cls-24" x="141.82" y="0">ies</tspan></text>
  </g>
  <g>
    <rect class="cls-9" x="992.18" y="298.47" width="149.83" height="49" rx="20" ry="20"/>
    <text class="cls-3" transform="translate(1007.37 331.56)"><tspan class="cls-22" x="0" y="0">M</tspan><tspan class="cls-26" x="21.7" y="0">y Libra</tspan><tspan class="cls-30" x="98.2" y="0">r</tspan><tspan x="107.57" y="0">y</tspan></text>
  </g>
  <g>
    <rect class="cls-1" x="992.18" y="359.71" width="199.97" height="49" rx="20" ry="20"/>
    <text class="cls-10" transform="translate(1006.04 392.64)"><tspan x="0" y="0">G</tspan><tspan class="cls-6" x="17.83" y="0">r</tspan><tspan class="cls-26" x="26.43" y="0">oup Libra</tspan><tspan class="cls-5" x="132.59" y="0">r</tspan><tspan class="cls-24" x="141.82" y="0">ies</tspan></text>
  </g>
  <g>
    <rect class="cls-9" x="992.18" y="509.72" width="149.83" height="49" rx="20" ry="20"/>
    <text class="cls-3" transform="translate(1007.37 542.81)"><tspan class="cls-22" x="0" y="0">M</tspan><tspan class="cls-26" x="21.7" y="0">y Libra</tspan><tspan class="cls-30" x="98.2" y="0">r</tspan><tspan x="107.57" y="0">y</tspan></text>
  </g>
  <g>
    <rect class="cls-9" x="992.18" y="749.96" width="149.83" height="49" rx="20" ry="20"/>
    <text class="cls-3" transform="translate(1007.37 783.05)"><tspan class="cls-22" x="0" y="0">M</tspan><tspan class="cls-26" x="21.7" y="0">y Libra</tspan><tspan class="cls-30" x="98.2" y="0">r</tspan><tspan x="107.57" y="0">y</tspan></text>
  </g>
  <g>
    <rect class="cls-9" x="412.31" y="949.76" width="149.83" height="49" rx="20" ry="20"/>
    <text class="cls-3" transform="translate(427.5 982.85)"><tspan class="cls-22" x="0" y="0">M</tspan><tspan class="cls-26" x="21.7" y="0">y Libra</tspan><tspan class="cls-30" x="98.2" y="0">r</tspan><tspan x="107.57" y="0">y</tspan></text>
  </g>
  <g>
    <rect class="cls-1" x="412.31" y="1011" width="199.97" height="49" rx="20" ry="20"/>
    <text class="cls-10" transform="translate(426.17 1043.93)"><tspan x="0" y="0">G</tspan><tspan class="cls-6" x="17.83" y="0">r</tspan><tspan class="cls-26" x="26.43" y="0">oup Libra</tspan><tspan class="cls-5" x="132.59" y="0">r</tspan><tspan class="cls-24" x="141.82" y="0">ies</tspan></text>
  </g>
  <g>
    <path class="cls-1" d="M737.07,930.68l-3.43,3.43c-.35.35-.65.74-.9,1.16,6.21,1.79,9.8,8.27,8.01,14.48-.55,1.91-1.57,3.64-2.98,5.04l-10.69,10.69c-4.57,4.57-11.98,4.57-16.55,0-4.57-4.57-4.57-11.98,0-16.55l4.64-4.63c-.66-2.45-.91-5-.75-7.53h0s-8.03,8.03-8.03,8.03c-6.85,6.85-6.85,17.97,0,24.82,6.85,6.85,17.97,6.85,24.82,0l10.69-10.7c6.85-6.85,6.85-17.96,0-24.82-1.41-1.41-3.04-2.57-4.84-3.42Z"/>
    <path class="cls-1" d="M760.88,915.14c-6.85-6.85-17.97-6.85-24.82,0l-10.69,10.69c-6.85,6.85-6.85,17.96,0,24.82,1.41,1.41,3.04,2.57,4.84,3.42l4.53-4.54c-6.24-1.67-9.94-8.09-8.27-14.33.53-1.98,1.58-3.79,3.03-5.24l10.69-10.69c4.57-4.57,11.98-4.57,16.55,0,4.57,4.57,4.57,11.98,0,16.55l-4.64,4.63c.66,2.46.91,5,.75,7.53l8.03-8.03c6.85-6.85,6.85-17.97,0-24.82Z"/>
  </g>
  <g>
    <path class="cls-1" d="M744.34,720.19h-4.86c-.51,0-.99.06-1.46.18,3.13,5.65,1.09,12.77-4.57,15.9-1.74.96-3.69,1.47-5.67,1.46h-17.55c-6.46,0-11.7-5.24-11.7-11.7s5.24-11.7,11.7-11.7h8.98c1.27-2.2,2.9-4.18,4.8-5.85h-13.78c-9.69,0-17.55,7.86-17.55,17.55s7.86,17.55,17.55,17.55h17.55c9.69,0,17.55-7.85,17.56-17.54,0-2-.34-3.98-1-5.86Z"/>
    <path class="cls-1" d="M757.04,708.49h-17.55c-9.69,0-17.55,7.85-17.56,17.54,0,2,.34,3.98,1,5.86h6.42c-3.23-5.6-1.31-12.75,4.28-15.98,1.78-1.03,3.8-1.57,5.85-1.57h17.55c6.46,0,11.7,5.24,11.7,11.7s-5.24,11.7-11.7,11.7h-8.98c-1.27,2.2-2.89,4.17-4.8,5.85h13.78c9.69,0,17.55-7.86,17.55-17.55s-7.86-17.55-17.55-17.55Z"/>
    <path class="cls-1" d="M704.39,661.7c0-3.23,2.62-5.85,5.85-5.85h32.17v11.7c0,4.85,3.93,8.77,8.77,8.77h11.7v26.71h5.85v-26.71l-26.32-26.32h-32.17c-6.46,0-11.7,5.24-11.7,11.7v41.34h5.85v-41.34Z"/>
  </g>
  <g>
    <g>
      <g>
        <path class="cls-1" d="M168.64,250h-32.17c-6.46,0-11.7,5.24-11.7,11.7v70.19c0,6.46,5.24,11.7,11.7,11.7h46.79c6.46,0,11.7-5.24,11.7-11.7v-55.57l-26.32-26.32ZM189.11,331.89c0,3.23-2.62,5.85-5.85,5.85h-46.79c-3.23,0-5.85-2.62-5.85-5.85v-70.19c0-3.23,2.62-5.85,5.85-5.85h32.17v11.7c0,4.85,3.93,8.77,8.77,8.77h11.7v55.57Z"/>
        <path class="cls-1" d="M156.09,288.88s0,0,0,0c-1.14-1.14-2.99-1.15-4.14,0,0,0,0,0,0,0l-11.7,11.7c-1.14,1.14-1.15,2.99,0,4.14,0,0,0,0,0,0l11.7,11.7c1.14,1.14,3,1.14,4.14,0,1.14-1.14,1.14-3,0-4.14l-9.63-9.63,9.63-9.63c1.14-1.14,1.15-2.99,0-4.14Z"/>
        <path class="cls-1" d="M167.78,288.87c-1.14-1.14-3-1.14-4.14,0h0c-1.14,1.15-1.14,3,0,4.14l9.63,9.63-9.63,9.63c-1.14,1.14-1.14,3,0,4.14,1.14,1.14,3,1.14,4.14,0l11.7-11.7s0,0,0,0c1.14-1.14,1.14-3,0-4.14l-11.7-11.7s0,0,0,0Z"/>
      </g>
      <text class="cls-2" transform="translate(241.45 319.79)"><tspan x="0" y="0">In</tspan><tspan class="cls-29" x="41.25" y="0">f</tspan><tspan x="57.61" y="0">o</tspan></text>
    </g>
    <g>
      <path class="cls-1" d="M127.69,592.08c-4.85,0-8.77,3.93-8.77,8.77v64.34c0,4.85,3.93,8.77,8.77,8.77h35.6c2.33,0,4.56-.93,6.2-2.57l28.75-28.74c1.64-1.64,2.57-3.87,2.57-6.2v-35.6c0-4.85-3.93-8.77-8.77-8.77h-64.34ZM124.77,600.85c0-1.62,1.31-2.92,2.92-2.92h64.34c1.62,0,2.92,1.31,2.92,2.92v32.17h-26.32c-4.85,0-8.77,3.93-8.77,8.77v26.32h-32.17c-1.62,0-2.92-1.31-2.92-2.92v-64.34ZM165.71,666.91v-25.11c0-1.62,1.31-2.92,2.92-2.92h25.11l-28.04,28.04Z"/>
      <text class="cls-2" transform="translate(241.45 656.02)"><tspan x="0" y="0">No</tspan><tspan class="cls-13" x="64.95" y="0">t</tspan><tspan x="80.18" y="0">es</tspan></text>
    </g>
    <g>
      <g>
        <path class="cls-1" d="M148.99,773.1c-4.85,0-8.77,3.93-8.77,8.77s3.93,8.77,8.77,8.77,8.77-3.93,8.77-8.77-3.93-8.77-8.77-8.77ZM148.99,784.8c-1.62,0-2.92-1.31-2.92-2.92s1.31-2.92,2.92-2.92,2.92,1.31,2.92,2.92-1.31,2.92-2.92,2.92Z"/>
        <path class="cls-1" d="M206.27,804.06l-40.95-40.95c-1.1-1.1-2.58-1.71-4.13-1.71h-26.83c-3.23,0-5.85,2.62-5.85,5.85v26.83c0,1.55.62,3.04,1.71,4.14l40.95,40.95c2.28,2.28,5.99,2.28,8.27,0l26.83-26.83c2.28-2.28,2.28-5.99,0-8.27ZM175.31,835.02l-40.95-40.95v-26.83h26.83l40.95,40.95-26.83,26.83Z"/>
      </g>
      <text class="cls-2" transform="translate(241.45 824.13)"><tspan class="cls-17" x="0" y="0">T</tspan><tspan x="27.47" y="0">ags</tspan></text>
    </g>
    <g>
      <text class="cls-2" transform="translate(241.45 487.9)"><tspan x="0" y="0">Abstract</tspan></text>
      <g>
        <path class="cls-1" d="M156.94,482.46h-11.7c-1.62,0-2.92,1.31-2.92,2.92s1.31,2.92,2.92,2.92h11.7c1.62,0,2.92-1.31,2.92-2.92s-1.31-2.92-2.92-2.92Z"/>
        <path class="cls-1" d="M174.49,470.76h-29.25c-1.62,0-2.92,1.31-2.92,2.92s1.31,2.92,2.92,2.92h29.25c1.62,0,2.92-1.31,2.92-2.92s-1.31-2.92-2.92-2.92Z"/>
        <path class="cls-1" d="M174.49,459.06h-29.25c-1.62,0-2.92,1.31-2.92,2.92s1.31,2.92,2.92,2.92h29.25c1.62,0,2.92-1.31,2.92-2.92s-1.31-2.92-2.92-2.92Z"/>
        <path class="cls-1" d="M183.26,418.11h-46.79c-1.21,0-2.38.18-3.48.53-4.21,1.31-7.39,4.94-8.07,9.4-.09.58-.15,1.17-.15,1.78h0v70.19c0,6.46,5.24,11.7,11.7,11.7h46.79c1.21,0,2.38-.18,3.48-.53,4.21-1.31,7.39-4.94,8.07-9.4.09-.58.15-1.17.15-1.78h0v-70.19c0-6.46-5.24-11.7-11.7-11.7ZM189.11,500c0,.61-.09,1.19-.26,1.74-.06.18-.12.36-.2.54-.3.7-.72,1.33-1.25,1.86-.26.26-.55.5-.87.71-.93.63-2.06,1-3.27,1h-46.79c-3.23,0-5.85-2.62-5.85-5.85v-70.19c0-.61.09-1.19.26-1.74.06-.18.12-.36.2-.54.37-.87.95-1.64,1.67-2.24.14-.12.29-.23.45-.34.93-.63,2.06-1,3.27-1h46.79c3.23,0,5.85,2.62,5.85,5.85v70.19Z"/>
      </g>
    </g>
  </g>
  <text class="cls-2" transform="translate(793.67 273.62)"><tspan x="0" y="0">S</tspan><tspan class="cls-13" x="30.8" y="0">t</tspan><tspan x="46.03" y="0">o</tspan><tspan class="cls-16" x="74.81" y="0">r</tspan><tspan x="92.09" y="0">ed</tspan><tspan x="0" y="57.6">File</tspan></text>
  <text class="cls-2" transform="translate(793.67 683.62)"><tspan x="0" y="0">Lin</tspan><tspan class="cls-15" x="67.12" y="0">k</tspan><tspan x="92.39" y="0">ed</tspan><tspan x="0" y="57.6">File</tspan></text>
  <text class="cls-2" transform="translate(793.67 929.21)"><tspan class="cls-11" x="0" y="0">W</tspan><tspan x="44.86" y="0">eb</tspan><tspan x="0" y="57.6">Link</tspan></text>
  <g>
    <text class="cls-4" transform="translate(1044.43 265)"><tspan x="0" y="0">Zo</tspan><tspan class="cls-13" x="44.23" y="0">t</tspan><tspan x="55.65" y="0">e</tspan><tspan class="cls-16" x="76.64" y="0">r</tspan><tspan x="89.6" y="0">o</tspan></text>
    <g>
      <path class="cls-1" d="M1008.48,231.26c-9,0-16.3,2.92-16.3,6.52v3.26c0,3.6,7.3,6.52,16.3,6.52s16.3-2.92,16.3-6.52v-3.26c0-3.6-7.3-6.52-16.3-6.52Z"/>
      <path class="cls-1" d="M1008.48,250.82c-4.81,0-9.31-.77-12.73-2.14-1.27-.49-2.46-1.14-3.56-1.93h0v7.33c0,3.6,7.3,6.52,16.3,6.52s16.3-2.92,16.3-6.52v-7.33c-1.1.79-2.3,1.44-3.56,1.93-3.42,1.37-7.93,2.14-12.73,2.14Z"/>
      <path class="cls-1" d="M1008.48,263.85c-4.81,0-9.31-.77-12.73-2.14-1.27-.49-2.46-1.14-3.56-1.93v4.07c0,3.6,7.3,6.52,16.3,6.52s16.3-2.92,16.3-6.52v-4.07c-1.1.79-2.3,1.44-3.56,1.93-3.42,1.37-7.93,2.14-12.74,2.14Z"/>
    </g>
  </g>
  <g>
    <text class="cls-4" transform="translate(464.56 265)"><tspan x="0" y="0">Zo</tspan><tspan class="cls-13" x="44.23" y="0">t</tspan><tspan x="55.65" y="0">e</tspan><tspan class="cls-16" x="76.64" y="0">r</tspan><tspan x="89.6" y="0">o</tspan></text>
    <g>
      <path class="cls-1" d="M428.61,231.26c-9,0-16.3,2.92-16.3,6.52v3.26c0,3.6,7.3,6.52,16.3,6.52s16.3-2.92,16.3-6.52v-3.26c0-3.6-7.3-6.52-16.3-6.52Z"/>
      <path class="cls-1" d="M428.61,250.82c-4.81,0-9.31-.77-12.73-2.14-1.27-.49-2.46-1.14-3.56-1.93h0v7.33c0,3.6,7.3,6.52,16.3,6.52s16.3-2.92,16.3-6.52v-7.33c-1.1.79-2.3,1.44-3.56,1.93-3.42,1.37-7.93,2.14-12.73,2.14Z"/>
      <path class="cls-1" d="M428.61,263.85c-4.81,0-9.31-.77-12.73-2.14-1.27-.49-2.46-1.14-3.56-1.93v4.07c0,3.6,7.3,6.52,16.3,6.52s16.3-2.92,16.3-6.52v-4.07c-1.1.79-2.3,1.44-3.56,1.93-3.42,1.37-7.93,2.14-12.74,2.14Z"/>
    </g>
  </g>
  <g>
    <text class="cls-4" transform="translate(1044.43 474.63)"><tspan class="cls-11" x="0" y="0">W</tspan><tspan x="33.64" y="0">eb</tspan><tspan class="cls-25" x="76.68" y="0">D</tspan><tspan class="cls-12" x="101.43" y="0">A</tspan><tspan x="123.8" y="0">V</tspan></text>
    <g>
      <path class="cls-1" d="M1008.48,440.89c-9,0-16.3,2.92-16.3,6.52v3.26c0,3.6,7.3,6.52,16.3,6.52s16.3-2.92,16.3-6.52v-3.26c0-3.6-7.3-6.52-16.3-6.52Z"/>
      <path class="cls-1" d="M1008.48,460.44c-4.81,0-9.31-.77-12.73-2.14-1.27-.49-2.46-1.14-3.56-1.93h0v7.33c0,3.6,7.3,6.52,16.3,6.52s16.3-2.92,16.3-6.52v-7.33c-1.1.79-2.3,1.44-3.56,1.93-3.42,1.37-7.93,2.14-12.73,2.14Z"/>
      <path class="cls-1" d="M1008.48,473.48c-4.81,0-9.31-.77-12.73-2.14-1.27-.49-2.46-1.14-3.56-1.93v4.07c0,3.6,7.3,6.52,16.3,6.52s16.3-2.92,16.3-6.52v-4.07c-1.1.79-2.3,1.44-3.56,1.93-3.42,1.37-7.93,2.14-12.74,2.14Z"/>
    </g>
  </g>
  <g>
    <text class="cls-4" transform="translate(1048.19 914.55)"><tspan x="0" y="0">https</tspan></text>
    <g>
      <path class="cls-1" d="M1027.28,914.65v-17.55c0-.69-.56-1.25-1.25-1.25h-3.76v-3.76c0-.69-.56-1.25-1.25-1.25h-2.51v-1.25c0-.69-.56-1.25-1.25-1.25h-10.03c-.69,0-1.25.56-1.25,1.25v1.25h-2.51c-.69,0-1.25.56-1.25,1.25v3.76h-3.76c-.69,0-1.25.56-1.25,1.25v17.55c0,.69.56,1.25,1.25,1.25h27.57c.69,0,1.25-.56,1.25-1.25M1001.58,908.38h1.25c.35,0,.63.28.63.63v3.76c0,.35-.28.63-.63.63h-1.25c-.35,0-.63-.28-.63-.63v-3.76c0-.35.28-.63.63-.63M1006.6,908.38h1.25c.35,0,.63.28.63.63v3.76c0,.35-.28.63-.63.63h-1.25c-.35,0-.63-.28-.63-.63v-3.76c0-.35.28-.63.63-.63M1010.98,909.01c0-.35.28-.63.63-.63h1.25c.35,0,.63.28.63.63v3.76c0,.35-.28.63-.63.63h-1.25c-.35,0-.63-.28-.63-.63v-3.76ZM1016.62,908.38h1.25c.35,0,.63.28.63.63v3.76c0,.35-.28.63-.63.63h-1.25c-.35,0-.63-.28-.63-.63v-3.76c0-.35.28-.63.63-.63M1021.01,909.01c0-.35.28-.63.63-.63h1.25c.35,0,.63.28.63.63v3.76c0,.35-.28.63-.63.63h-1.25c-.35,0-.63-.28-.63-.63v-3.76Z"/>
      <path class="cls-1" d="M997.2,880.81c-2.77,0-5.01,2.24-5.01,5.01v30.08c0,2.77,2.24,5.01,5.01,5.01h30.08c2.77,0,5.01-2.24,5.01-5.01v-30.08c0-2.77-2.24-5.01-5.01-5.01h-30.08ZM994.69,885.82c0-1.38,1.12-2.51,2.51-2.51h30.08c1.38,0,2.51,1.12,2.51,2.51v30.08c0,1.38-1.12,2.51-2.51,2.51h-30.08c-1.38,0-2.51-1.12-2.51-2.51v-30.08Z"/>
    </g>
  </g>
  <g>
    <text class="cls-4" transform="translate(1050.76 674.55)"><tspan x="0" y="0">Lo</tspan><tspan class="cls-23" x="41.94" y="0">c</tspan><tspan x="62.86" y="0">al</tspan><tspan x="0" y="43.2">+Cloud</tspan></text>
    <path class="cls-1" d="M992.18,666.07c0-3.12,2.53-5.66,5.66-5.66h33.94c3.12,0,5.66,2.53,5.66,5.66v2.83c0,3.12-2.53,5.66-5.66,5.66h-33.94c-3.12,0-5.66-2.53-5.66-5.66v-2.83ZM999.25,668.89c.78,0,1.41-.63,1.41-1.41s-.63-1.41-1.41-1.41-1.41.63-1.41,1.41.63,1.41,1.41,1.41M1004.91,668.89c.78,0,1.41-.63,1.41-1.41s-.63-1.41-1.41-1.41-1.41.63-1.41,1.41.63,1.41,1.41,1.41M994.76,658.16c.98-.38,2.03-.58,3.08-.58h33.94c1.09,0,2.13.2,3.08.58l-5.28-9.68c-.74-1.36-2.17-2.21-3.72-2.21h-22.09c-1.55,0-2.98.85-3.72,2.21l-5.28,9.68Z"/>
    <g>
      <line class="cls-8" x1="1014.81" y1="681.67" x2="1014.81" y2="708.61"/>
      <line class="cls-8" x1="992.18" y1="708.61" x2="1037.44" y2="708.61"/>
    </g>
  </g>
  <text class="cls-2" transform="translate(1200.32 82.14)"><tspan class="cls-27" x="0" y="0">R</tspan><tspan x="30.19" y="0">ela</tspan><tspan class="cls-13" x="96.75" y="0">t</tspan><tspan x="111.98" y="0">ed</tspan></text>
  <path class="cls-7" d="M1224.12,131.43c33.91-33.91,96.42-23.26,121.76,2.08"/>
  <path class="cls-7" d="M1781.43,499.01c-33.91-33.91-23.26-96.42,2.08-121.76"/>
  <path class="cls-7" d="M1331.43,845.88c-33.91-33.91-23.26-96.42,2.08-121.76"/>
  <g>
    <path class="cls-1" d="M730.71,314.34h-11.7c-1.62,0-2.92,1.31-2.92,2.92s1.31,2.92,2.92,2.92h11.7c1.62,0,2.92-1.31,2.92-2.92s-1.31-2.92-2.92-2.92Z"/>
    <path class="cls-1" d="M748.26,302.64h-29.25c-1.62,0-2.92,1.31-2.92,2.92s1.31,2.92,2.92,2.92h29.25c1.62,0,2.92-1.31,2.92-2.92s-1.31-2.92-2.92-2.92Z"/>
    <path class="cls-1" d="M748.26,290.95h-29.25c-1.62,0-2.92,1.31-2.92,2.92s1.31,2.92,2.92,2.92h29.25c1.62,0,2.92-1.31,2.92-2.92s-1.31-2.92-2.92-2.92Z"/>
    <path class="cls-1" d="M742.41,250h-32.17c-6.46,0-11.7,5.24-11.7,11.7v70.19c0,6.46,5.24,11.7,11.7,11.7h46.79c6.46,0,11.7-5.24,11.7-11.7v-55.57l-26.32-26.32ZM762.89,331.89c0,3.23-2.62,5.85-5.85,5.85h-46.79c-3.23,0-5.85-2.62-5.85-5.85v-70.19c0-3.23,2.62-5.85,5.85-5.85h32.17v11.7c0,4.85,3.93,8.77,8.77,8.77h11.7v55.57Z"/>
  </g>
</svg>